<mxfile host="app.diagrams.net" agent="Mozilla/5.0 (Windows NT 10.0; Win64; x64) AppleWebKit/537.36 (KHTML, like Gecko) Chrome/128.0.0.0 Safari/537.36 Edg/128.0.0.0" version="24.7.12">
  <diagram name="Page-1" id="zwhGvuFhXwCDQahis3kh">
    <mxGraphModel dx="1002" dy="567" grid="1" gridSize="10" guides="1" tooltips="1" connect="1" arrows="1" fold="1" page="1" pageScale="1" pageWidth="1654" pageHeight="2336" math="0" shadow="0">
      <root>
        <mxCell id="0" />
        <mxCell id="1" parent="0" />
        <mxCell id="H-ybQ5YfGoghg8FmdTn6-9" style="edgeStyle=orthogonalEdgeStyle;rounded=0;orthogonalLoop=1;jettySize=auto;html=1;exitX=1;exitY=0.3333333333333333;exitDx=0;exitDy=0;exitPerimeter=0;entryX=0;entryY=0.5;entryDx=0;entryDy=0;" edge="1" parent="1" source="H-ybQ5YfGoghg8FmdTn6-1" target="H-ybQ5YfGoghg8FmdTn6-2">
          <mxGeometry relative="1" as="geometry" />
        </mxCell>
        <mxCell id="H-ybQ5YfGoghg8FmdTn6-10" style="edgeStyle=orthogonalEdgeStyle;rounded=0;orthogonalLoop=1;jettySize=auto;html=1;entryX=0;entryY=0.5;entryDx=0;entryDy=0;" edge="1" parent="1" source="H-ybQ5YfGoghg8FmdTn6-1" target="H-ybQ5YfGoghg8FmdTn6-4">
          <mxGeometry relative="1" as="geometry" />
        </mxCell>
        <mxCell id="H-ybQ5YfGoghg8FmdTn6-1" value="Người dùng&lt;div&gt;&lt;br&gt;&lt;/div&gt;" style="shape=umlActor;verticalLabelPosition=bottom;verticalAlign=top;html=1;" vertex="1" parent="1">
          <mxGeometry x="90" y="215" width="30" height="60" as="geometry" />
        </mxCell>
        <mxCell id="H-ybQ5YfGoghg8FmdTn6-2" value="Đăng ký/Đăng nhập" style="ellipse;whiteSpace=wrap;html=1;" vertex="1" parent="1">
          <mxGeometry x="240" y="100" width="140" height="70" as="geometry" />
        </mxCell>
        <mxCell id="H-ybQ5YfGoghg8FmdTn6-3" value="Tạo đơn tuyển dụng" style="ellipse;whiteSpace=wrap;html=1;" vertex="1" parent="1">
          <mxGeometry x="240" y="210" width="140" height="70" as="geometry" />
        </mxCell>
        <mxCell id="H-ybQ5YfGoghg8FmdTn6-4" value="Tạo đơn ứng tuyển" style="ellipse;whiteSpace=wrap;html=1;" vertex="1" parent="1">
          <mxGeometry x="240" y="310" width="140" height="70" as="geometry" />
        </mxCell>
        <mxCell id="H-ybQ5YfGoghg8FmdTn6-7" style="edgeStyle=orthogonalEdgeStyle;rounded=0;orthogonalLoop=1;jettySize=auto;html=1;" edge="1" parent="1" source="H-ybQ5YfGoghg8FmdTn6-5" target="H-ybQ5YfGoghg8FmdTn6-6">
          <mxGeometry relative="1" as="geometry" />
        </mxCell>
        <mxCell id="H-ybQ5YfGoghg8FmdTn6-5" value="Quản lý đơn tuyển dụng" style="ellipse;whiteSpace=wrap;html=1;" vertex="1" parent="1">
          <mxGeometry x="240" y="430" width="140" height="70" as="geometry" />
        </mxCell>
        <mxCell id="H-ybQ5YfGoghg8FmdTn6-6" value="Quản lý đơn ứng tuyển" style="ellipse;whiteSpace=wrap;html=1;" vertex="1" parent="1">
          <mxGeometry x="240" y="590" width="140" height="70" as="geometry" />
        </mxCell>
        <mxCell id="H-ybQ5YfGoghg8FmdTn6-8" value="Nhà tuyển dụng" style="shape=umlActor;verticalLabelPosition=bottom;verticalAlign=top;html=1;" vertex="1" parent="1">
          <mxGeometry x="90" y="435" width="30" height="60" as="geometry" />
        </mxCell>
      </root>
    </mxGraphModel>
  </diagram>
</mxfile>
